<?xml version="1.0" encoding="UTF-8" standalone="no"?>
<!DOCTYPE svg PUBLIC "-//W3C//DTD SVG 1.1//EN" "http://www.w3.org/Graphics/SVG/1.1/DTD/svg11.dtd">
<svg width="100%" height="100%" viewBox="0 0 800 600" version="1.1" xmlns="http://www.w3.org/2000/svg" xmlns:xlink="http://www.w3.org/1999/xlink" xml:space="preserve" xmlns:serif="http://www.serif.com/" style="fill-rule:evenodd;clip-rule:evenodd;stroke-linejoin:round;stroke-miterlimit:2;">
    <g id="_1000blue" serif:id="1000blue" transform="matrix(1.51058,0,0,1.38497,-174.656,-59.1935)">
        <g transform="matrix(0.313895,0,0,0.334158,0,2.4046)">
            <path d="M1119.59,477.998C1119.59,375.913 1038.69,293.033 939.056,293.033L577.994,293.033C478.356,293.033 397.463,375.913 397.463,477.998L397.463,1059.88C397.463,1161.96 478.356,1244.84 577.994,1244.84L939.056,1244.84C1038.69,1244.84 1119.59,1161.96 1119.59,1059.88L1119.59,477.998Z" style="fill:rgb(125,218,225);stroke:white;stroke-width:38.86px;"/>
        </g>
        <g transform="matrix(0.535742,0,0,0.488104,10.834,-337.619)">
            <rect x="427.924" y="1314.39" width="38.381" height="219.861" style="fill:rgb(199,223,224);"/>
        </g>
        <g transform="matrix(-0.535742,0,0,0.488104,465.36,-337.619)">
            <rect x="427.924" y="1314.39" width="38.381" height="219.861" style="fill:rgb(199,223,224);"/>
        </g>
        <g transform="matrix(0.535742,0,0,0.36576,35.3374,-149.914)">
            <rect x="427.924" y="1314.39" width="38.381" height="219.861" style="fill:rgb(199,223,224);"/>
        </g>
        <g transform="matrix(-0.535742,0,0,0.36576,440.857,-149.914)">
            <rect x="427.924" y="1314.39" width="38.381" height="219.861" style="fill:rgb(199,223,224);"/>
        </g>
        <g transform="matrix(0.535742,0,0,0.274083,59.8408,-9.25732)">
            <rect x="427.924" y="1314.39" width="38.381" height="219.861" style="fill:rgb(199,223,224);"/>
        </g>
        <g transform="matrix(-0.535742,0,0,0.274083,416.353,-9.25732)">
            <rect x="427.924" y="1314.39" width="38.381" height="219.861" style="fill:rgb(199,223,224);"/>
        </g>
        <g transform="matrix(0.535742,0,0,0.205384,84.3442,96.1439)">
            <rect x="427.924" y="1314.39" width="38.381" height="219.861" style="fill:rgb(199,223,224);"/>
        </g>
        <g transform="matrix(-0.535742,0,0,0.205384,391.85,96.1439)">
            <rect x="427.924" y="1314.39" width="38.381" height="219.861" style="fill:rgb(199,223,224);"/>
        </g>
        <g transform="matrix(0.313895,0,0,0.334158,0,2.4046)">
            <path d="M1119.59,477.998C1119.59,375.913 1038.69,293.033 939.056,293.033L577.994,293.033C478.356,293.033 397.463,375.913 397.463,477.998L397.463,1059.88C397.463,1161.96 478.356,1244.84 577.994,1244.84L939.056,1244.84C1038.69,1244.84 1119.59,1161.96 1119.59,1059.88L1119.59,477.998Z" style="fill:none;stroke:white;stroke-width:38.86px;"/>
        </g>
        <g transform="matrix(1,0,0,1.08962,-8.82926,-298.231)">
            <g transform="matrix(0.313895,0,0,0.342364,0,0)">
                <rect x="618.425" y="1437.32" width="336.456" height="114.694" style="fill:white;"/>
            </g>
            <g transform="matrix(0.384617,0,0,0.4195,-40.3692,-119.624)">
                <text x="650.24px" y="1523.67px" style="font-family:'Raleway-Bold', 'Raleway', sans-serif;font-weight:700;font-size:77.493px;fill:rgb(125,218,225);">1,000</text>
            </g>
        </g>
    </g>
    <g transform="matrix(1.51058,0,0,1.38497,-475.978,-60.2447)">
        <g>
            <g transform="matrix(-0.313895,4.16334e-17,-2.77556e-17,-0.334158,960.317,517.057)">
                <path d="M1119.59,477.998C1119.59,375.913 1038.69,293.033 939.056,293.033L577.994,293.033C478.356,293.033 397.463,375.913 397.463,477.998L397.463,1059.88C397.463,1161.96 478.356,1244.84 577.994,1244.84L939.056,1244.84C1038.69,1244.84 1119.59,1161.96 1119.59,1059.88L1119.59,477.998Z" style="fill:rgb(144,59,46);stroke:white;stroke-width:46.63px;"/>
            </g>
            <g transform="matrix(-0.535742,1.33055e-17,-4.16916e-17,-0.500367,949.942,875.728)">
                <rect x="427.924" y="1314.39" width="38.381" height="219.861" style="fill:rgb(194,124,113);"/>
            </g>
            <g transform="matrix(0.535742,-1.33055e-17,-4.16916e-17,-0.500367,495.416,875.728)">
                <rect x="427.924" y="1314.39" width="38.381" height="219.861" style="fill:rgb(194,124,113);"/>
            </g>
            <g transform="matrix(-0.535742,1.33055e-17,-3.81985e-17,-0.37495,925.439,683.307)">
                <rect x="427.924" y="1314.39" width="38.381" height="219.861" style="fill:rgb(194,124,113);"/>
            </g>
            <g transform="matrix(0.535742,-1.33055e-17,-3.81985e-17,-0.37495,519.919,683.307)">
                <rect x="427.924" y="1314.39" width="38.381" height="219.861" style="fill:rgb(194,124,113);"/>
            </g>
            <g transform="matrix(-0.535742,1.33055e-17,-1.47643e-17,-0.280969,900.935,539.116)">
                <rect x="427.924" y="1314.39" width="38.381" height="219.861" style="fill:rgb(194,124,113);"/>
            </g>
            <g transform="matrix(0.535742,-1.33055e-17,-1.47643e-17,-0.280969,544.423,539.116)">
                <rect x="427.924" y="1314.39" width="38.381" height="219.861" style="fill:rgb(194,124,113);"/>
            </g>
            <g transform="matrix(-0.535742,1.33055e-17,-1.97418e-17,-0.210544,876.432,431.066)">
                <rect x="427.924" y="1314.39" width="38.381" height="219.861" style="fill:rgb(194,124,113);"/>
            </g>
            <g transform="matrix(0.535742,-1.33055e-17,-1.97418e-17,-0.210544,568.926,431.066)">
                <rect x="427.924" y="1314.39" width="38.381" height="219.861" style="fill:rgb(194,124,113);"/>
            </g>
            <g transform="matrix(-0.313895,4.16334e-17,-2.77556e-17,-0.334158,960.317,517.057)">
                <path d="M1119.59,477.998C1119.59,375.913 1038.69,293.033 939.056,293.033L577.994,293.033C478.356,293.033 397.463,375.913 397.463,477.998L397.463,1059.88C397.463,1161.96 478.356,1244.84 577.994,1244.84L939.056,1244.84C1038.69,1244.84 1119.59,1161.96 1119.59,1059.88L1119.59,477.998Z" style="fill:none;stroke:white;stroke-width:46.63px;"/>
            </g>
            <g transform="matrix(1,-2.44594e-16,1.95548e-16,1,475.294,-251.61)">
                <g transform="matrix(0.313895,0,0,0.342364,0,0)">
                    <rect x="618.425" y="1437.32" width="336.456" height="114.694" style="fill:white;"/>
                </g>
                <g transform="matrix(0.346151,0,2.06829e-32,0.377545,-26.412,-56.4828)">
                    <text x="650.24px" y="1523.67px" style="font-family:'Raleway-Bold', 'Raleway', sans-serif;font-weight:700;font-size:77.493px;fill:rgb(144,59,46);">&lt;1,000&gt;</text>
                </g>
            </g>
        </g>
    </g>
</svg>
